<svg width="32" height="32" viewBox="0 0 32 32" fill="none" xmlns="http://www.w3.org/2000/svg">
<path fill-rule="evenodd" clip-rule="evenodd" d="M26.3333 16C26.3333 15.4477 25.8856 15 25.3333 15H6.66663C6.11435 15 5.66663 15.4477 5.66663 16C5.66663 16.5523 6.11435 17 6.66663 17H25.3333C25.8856 17 26.3333 16.5523 26.3333 16Z" fill="#F5F1E9"/>
<path fill-rule="evenodd" clip-rule="evenodd" d="M26.3333 22.6667C26.3333 22.1144 25.8856 21.6667 25.3333 21.6667H6.66663C6.11435 21.6667 5.66663 22.1144 5.66663 22.6667C5.66663 23.2189 6.11435 23.6667 6.66663 23.6667H25.3333C25.8856 23.6667 26.3333 23.2189 26.3333 22.6667Z" fill="#F5F1E9"/>
<path fill-rule="evenodd" clip-rule="evenodd" d="M26.6667 30C26.6667 29.4477 26.2189 29 25.6667 29H7C6.44772 29 6 29.4477 6 30C6 30.5523 6.44772 31 7 31H25.6667C26.2189 31 26.6667 30.5523 26.6667 30Z" fill="#F5F1E9"/>
</svg>
